<?xml version="1.0" encoding="UTF-8"?>
<svg width="389px" height="99px" viewBox="0 0 389 99" version="1.1" xmlns="http://www.w3.org/2000/svg" xmlns:xlink="http://www.w3.org/1999/xlink">
    <!-- Generator: Sketch 52.2 (67145) - http://www.bohemiancoding.com/sketch -->
    <title>Group</title>
    <desc>Created with Sketch.</desc>
    <g id="Letter-Sized-Vertical-Document" stroke="none" stroke-width="1" fill="none" fill-rule="evenodd">
        <g id="FABRIC" transform="translate(-251.000000, -497.000000)" fill-rule="nonzero">
            <g id="Imaging-Stack--FABRIC">
                <g id="Stack" transform="translate(251.000000, 224.000000)">
                    <g id="Stack-Graphic">
                        <g id="Group" transform="translate(0.000000, 273.000000)">
                            <path d="M349,56 L349,87 L280,87 L280,114 L85,114 L85,87 L40,87 L40,56 L40,38 L75,38 L75,56 L314,56 L314,38 L349,38 L349,56 Z" id="Combined-Shape"></path>
                            <path d="M39.3752182,0 L155.803665,47.7639008 C177.861707,56.9101796 211.126978,56.9101796 233.196335,47.7639008 L349.624782,4.01161853e-14 L376.440663,10.8400342 C381.192845,12.8668948 384.581603,14.905047 386.623909,16.9375535 C388.654901,18.964414 389,20.6638152 389,22.0131737 C389,23.3681779 388.654901,25.0619333 386.623909,26.7556886 C384.58726,28.788195 381.192845,31.1594525 376.440663,33.1976048 L229.796262,93.1565441 C210.793194,100.947819 178.206806,100.947819 159.19808,93.1565441 L12.5593368,33.1976048 C7.80715532,31.1650984 4.41839732,28.7938409 2.37609075,26.7556886 C0.339441536,25.0619333 0,23.3681779 0,22.0131737 C0,20.6638152 0.339441536,18.964414 2.37609075,16.9375535 C4.41273997,14.905047 7.80715532,12.8668948 12.5593368,10.8400342 L39.3752182,0 Z" id="Path" fill="#001529"></path>
                        </g>
                    </g>
                </g>
            </g>
        </g>
    </g>
</svg>