<?xml version="1.0" encoding="UTF-8"?>
<svg width="71px" height="66px" viewBox="0 0 71 66" version="1.1" xmlns="http://www.w3.org/2000/svg" xmlns:xlink="http://www.w3.org/1999/xlink">
    <!-- Generator: Sketch 52.5 (67469) - http://www.bohemiancoding.com/sketch -->
    <title>noun_169904_cc</title>
    <desc>Created with Sketch.</desc>
    <g id="Letter-Sized-Vertical-Document" stroke="none" stroke-width="1" fill="none" fill-rule="evenodd">
        <g id="Site" transform="translate(-25.000000, -1228.000000)">
            <g id="[ANALYTICS]OPS_EXCEL" transform="translate(0.000000, 1011.000000)">
                <g id="USERS">
                    <g id="noun_169904_cc" transform="translate(25.000000, 218.000000)">
                        <path d="M10.1818182,38.4969697 C10.1818182,38.4 10.1818182,38.4 10.1818182,38.4 C6.01212121,34.4242424 3.39393939,28.8 3.39393939,22.5939394 C3.39393939,10.9575758 12.5090909,1.45454545 23.9515152,0.775757576 C23.369697,0.775757576 22.7878788,0.678787879 22.2060606,0.678787879 C10.1818182,0.678787879 0.387878788,10.4727273 0.387878788,22.4969697 C0.387878788,28.7030303 3.00606061,34.3272727 7.17575758,38.3030303 C7.17575758,38.3030303 7.17575758,38.4 7.17575758,38.4 L6.4,62.8363636 C6.4,63.4181818 6.78787879,63.9030303 7.36969697,63.9030303 L28.8,64 C28.8,64 28.8,64 28.8969697,64 L9.30909091,63.9030303 L10.1818182,38.4969697 Z" id="Path" fill="#FFFFFF"></path>
                        <path d="M50.8121212,27.0545455 L50.8121212,26.3757576 L45.2848485,25.2121212 C44.7030303,25.0181818 44.2181818,24.5333333 44.2181818,23.8545455 C44.2181818,23.1757576 44.7030303,22.6909091 45.2848485,22.4969697 L50.5212121,20.9454545 C50.0363636,18.230303 49.0666667,15.4181818 47.6121212,12.6060606 C47.5151515,12.4121212 47.4181818,12.2181818 47.3212121,12.0242424 C47.3212121,11.9272727 47.2242424,11.9272727 47.2242424,11.830303 C43.4424242,5.13939394 36.2666667,0.678787879 28.1212121,0.678787879 C16.0969697,0.678787879 6.3030303,10.4727273 6.3030303,22.4969697 C6.3030303,28.7030303 8.92121212,34.3272727 13.0909091,38.3030303 C13.0909091,38.3030303 13.0909091,38.4 13.0909091,38.4 L12.3151515,62.8363636 C12.3151515,63.4181818 12.7030303,63.9030303 13.2848485,63.9030303 L34.7151515,64 C35.2969697,64 35.6848485,63.5151515 35.6848485,63.030303 L35.6848485,53.1393939 C35.6848485,52.5575758 36.169697,52.0727273 36.7515152,51.9757576 L45.8666667,50.9090909 C48.2909091,50.6181818 50.230303,48.6787879 50.4242424,46.2545455 L50.5212121,45.4787879 C50.5212121,45.3818182 50.5212121,45.2848485 50.5212121,45.1878788 L50.6181818,37.430303 L53.6242424,36.6545455 C54.7878788,36.3636364 55.369697,35.0060606 54.7878788,33.9393939 L50.8121212,27.0545455 Z" id="Path" stroke="#FFFFFF" stroke-width="2"></path>
                        <path d="M68.7515152,15.4181818 L50.6181818,20.8484848 C50.6181818,20.8484848 50.8121212,21.8181818 50.9090909,23.8545455 C51.0060606,25.1151515 51.0060606,26.3757576 51.0060606,26.3757576 L68.8484848,30.3515152 C68.8484848,30.3515152 70.0121212,28.0242424 70.1090909,22.8848485 C69.9151515,18.0363636 68.7515152,15.4181818 68.7515152,15.4181818 Z" id="Path" fill="#FFFFFF"></path>
                    </g>
                </g>
            </g>
        </g>
    </g>
</svg>