<?xml version="1.0" encoding="UTF-8"?>
<svg width="73px" height="66px" viewBox="0 0 73 66" version="1.1" xmlns="http://www.w3.org/2000/svg" xmlns:xlink="http://www.w3.org/1999/xlink">
    <!-- Generator: Sketch 52.4 (67378) - http://www.bohemiancoding.com/sketch -->
    <title>noun_169904_cc</title>
    <desc>Created with Sketch.</desc>
    <g id="Letter-Sized-Vertical-Document" stroke="none" stroke-width="1" fill="none" fill-rule="evenodd">
        <g id="Site" transform="translate(-677.000000, -1508.000000)" fill="#000000">
            <g id="noun_169904_cc" transform="translate(677.000000, 1508.000000)">
                <path d="M10.5,39.7 C10.5,39.6 10.5,39.6 10.5,39.6 C6.2,35.5 3.5,29.7 3.5,23.3 C3.5,11.3 12.9,1.5 24.7,0.8 C24.1,0.8 23.5,0.7 22.9,0.7 C10.5,0.7 0.4,10.8 0.4,23.2 C0.4,29.6 3.1,35.4 7.4,39.5 C7.4,39.5 7.4,39.6 7.4,39.6 L6.6,64.8 C6.6,65.4 7,65.9 7.6,65.9 L29.7,66 C29.7,66 29.7,66 29.8,66 L9.6,65.9 L10.5,39.7 Z" id="Path"></path>
                <path d="M52.4,27.9 L52.4,27.2 L46.7,26 C46.1,25.8 45.6,25.3 45.6,24.6 C45.6,23.9 46.1,23.4 46.7,23.2 L52.1,21.6 C51.6,18.8 50.6,15.9 49.1,13 C49,12.8 48.9,12.6 48.8,12.4 C48.8,12.3 48.7,12.3 48.7,12.2 C44.8,5.3 37.4,0.7 29,0.7 C16.6,0.7 6.5,10.8 6.5,23.2 C6.5,29.6 9.2,35.4 13.5,39.5 C13.5,39.5 13.5,39.6 13.5,39.6 L12.7,64.8 C12.7,65.4 13.1,65.9 13.7,65.9 L35.8,66 C36.4,66 36.8,65.5 36.8,65 L36.8,54.8 C36.8,54.2 37.3,53.7 37.9,53.6 L47.3,52.5 C49.8,52.2 51.8,50.2 52,47.7 L52.1,46.9 C52.1,46.8 52.1,46.7 52.1,46.6 L52.2,38.6 L55.3,37.8 C56.5,37.5 57.1,36.1 56.5,35 L52.4,27.9 Z" id="Path"></path>
                <path d="M70.9,15.9 L52.2,21.5 C52.2,21.5 52.4,22.5 52.5,24.6 C52.6,25.9 52.6,27.2 52.6,27.2 L71,31.3 C71,31.3 72.2,28.9 72.3,23.6 C72.1,18.6 70.9,15.9 70.9,15.9 Z" id="Path"></path>
            </g>
        </g>
    </g>
</svg>