<?xml version="1.0" encoding="UTF-8"?>
<svg width="1006px" height="641px" viewBox="0 0 1006 641" version="1.1" xmlns="http://www.w3.org/2000/svg" xmlns:xlink="http://www.w3.org/1999/xlink">
    <!-- Generator: Sketch 52.5 (67469) - http://www.bohemiancoding.com/sketch -->
    <title>Ingest-Transform-Assess</title>
    <desc>Created with Sketch.</desc>
    <g id="Letter-Sized-Vertical-Document" stroke="none" stroke-width="1" fill="none" fill-rule="evenodd">
        <g id="Site" transform="translate(-326.000000, -1166.000000)">
            <g id="[ANALYTICS]OPS_EXCEL" transform="translate(0.000000, 1011.000000)">
                <g id="Ingest-Transform-Assess" transform="translate(324.000000, 147.000000)">
                    <g id="Inputs">
                        <g id="Right" transform="translate(599.000000, 0.000000)">
                            <g id="Arrow" transform="translate(0.000000, 74.000000)">
                                <path d="M36.8559336,120.176579 L24.234205,134.353158 L21.033042,131.655035 L27.02379,125.069786 C28.3652364,123.667364 29.4780106,122.661294 30.3621457,122.051546 L-7,122.051546 L-7,118.301612 L30.4078766,118.301612 C29.7371534,117.874788 29.1883881,117.463214 28.7615642,117.066878 C28.3347403,116.670541 27.755488,116.076046 27.02379,115.283373 L21.033042,108.698123 L24.234205,106 L36.8559336,120.176579 Z" id="-&gt;" fill="#1890FF" transform="translate(14.927967, 120.176579) rotate(90.000000) translate(-14.927967, -120.176579) "></path>
                                <path d="M14.925782,116.258634 L14.925782,96.2607688 L14.925782,95.6360127 C14.925782,84.5914965 23.882556,75.6381472 34.9316953,75.6381472 L74.3236585,75.6381472 L39,75.6381478 L138.161543,75.6381478 C149.20414,75.6381478 158.155934,66.6831154 158.155934,55.6414181 L158.155934,19.9967297 C158.155934,8.95284084 167.102545,7.10542736e-15 178.158926,7.10542736e-15 L274.323659,7.10542736e-15" id="Path" stroke="#1890FF" stroke-width="4" stroke-linecap="round" stroke-linejoin="round"></path>
                            </g>
                            <g id="Site" transform="translate(321.000000, 0.000000)">
                                <text id="Sites" font-family="DINPro-Bold, DINPro" font-size="28" font-weight="bold" letter-spacing="1.12" fill="#000000">
                                    <tspan x="13" y="29">Sites</tspan>
                                </text>
                                <text id="Raw-Data" font-family="DINPro-Regular, DINPro" font-size="20" font-weight="normal" letter-spacing="0.8" fill="#000000">
                                    <tspan x="0" y="149">Raw Data</tspan>
                                </text>
                                <g id="backdrop" transform="translate(7.000000, 44.000000)" fill="#FFFFFF" fill-rule="nonzero">
                                    <circle id="Oval" cx="43" cy="36" r="36"></circle>
                                    <rect id="Rectangle" x="0" y="33" width="23" height="27"></rect>
                                </g>
                                <path d="M50.6553088,43.0002781 C39.2548789,43.0438458 27.800043,48.20655 20.482862,58.7935036 C19.4375501,60.2748055 18.5664108,62.0176083 17.7824264,63.5860455 L15.4303797,69.162609 L25.273795,69.162609 C26.9288721,61.9303692 38.4273518,52.345537 49.1417952,52.345537 C60.2917863,52.345537 67.9573574,56.0923005 73.7065713,64.2830303 C83.7241413,78.9217804 77.6265768,100.182785 59.1594047,106.3694 C51.929333,108.809192 36.4237843,107.589466 27.1030887,107.589466 C27.799963,110.203529 34.3332018,113.253116 36.5109339,114.12447 C46.528503,117.871293 55.6749777,118.132822 65.6054385,113.863186 C68.0444991,112.817561 69.2640725,111.946235 71.3546964,110.639203 C80.1527352,104.713995 87.556962,93.2992555 87.556962,82.7558699 C87.556962,72.9095667 86.5988155,66.3744085 80.501164,57.9222728 C73.4017564,48.0324026 62.0557387,42.9567104 50.6553088,43.0002781 Z M51.9476823,56.1139241 C44.4563988,56.1139241 37.0522909,58.878335 32.6968935,64.4071246 C31.56449,65.7893218 29.9094668,67.6897168 29.4739268,69.5038509 L32.2613297,69.5038509 C41.4076636,52.4855468 70.4145964,55.1635932 72.940726,79.4384339 C73.5504816,85.4855477 68.2368068,96.0248359 65.1009207,96.0248359 L7,96.0248359 L7,103.886076 L54.2996928,103.886076 C64.665538,103.886076 75.3797468,93.1740447 75.3797468,79.2656838 C75.3797468,67.2578443 64.0556866,56.1139241 51.9476823,56.1139241 Z M45.9304604,72.0379747 C41.0858109,72.0379747 36.5054236,75.9722546 36.0650006,81.5675134 C35.6245784,86.5507908 40.6454634,91.7088608 45.4020285,91.7088608 C59.5836402,91.7088608 58.5265507,72.0379747 45.9304604,72.0379747 Z M7,76.721519 L7,91.7088608 L27.2855074,91.7088608 C37.4721789,91.7088608 38.086867,76.721519 26.8464026,76.721519 L7,76.721519 Z" id="Shape" fill="#000000"></path>
                            </g>
                        </g>
                        <g id="Left">
                            <g id="Arrow" transform="translate(297.500000, 145.500000) scale(-1, 1) translate(-297.500000, -145.500000) translate(160.000000, 74.000000)">
                                <path d="M36.8559336,120.176579 L24.234205,134.353158 L21.033042,131.655035 L27.02379,125.069786 C28.3652364,123.667364 29.4780106,122.661294 30.3621457,122.051546 L-7,122.051546 L-7,118.301612 L30.4078766,118.301612 C29.7371534,117.874788 29.1883881,117.463214 28.7615642,117.066878 C28.3347403,116.670541 27.755488,116.076046 27.02379,115.283373 L21.033042,108.698123 L24.234205,106 L36.8559336,120.176579 Z" id="-&gt;" fill="#1890FF" transform="translate(14.927967, 120.176579) rotate(90.000000) translate(-14.927967, -120.176579) "></path>
                                <path d="M14.925782,116.258634 L14.925782,96.2607688 L14.925782,95.6360127 C14.925782,84.5914965 23.882556,75.6381472 34.9316953,75.6381472 L74.3236585,75.6381472 L39,75.6381478 L138.161543,75.6381478 C149.20414,75.6381478 158.155934,66.6831154 158.155934,55.6414181 L158.155934,19.9967297 C158.155934,8.95284084 167.102545,1.42108547e-14 178.158926,1.42108547e-14 L274.323659,1.42108547e-14" id="Path" stroke="#1890FF" stroke-width="4" stroke-linecap="round" stroke-linejoin="round"></path>
                            </g>
                            <g id="Pharma">
                                <g id="Group-5" transform="translate(28.000000, 42.000000)">
                                    <g id="Silos" transform="translate(18.694737, 0.000000)">
                                        <rect id="Rectangle" fill="#FFFFFF" fill-rule="nonzero" x="0.778947368" y="6.23157895" width="43.6210526" height="42.0631579"></rect>
                                        <path d="M44.6888232,20.8165886 C44.7535896,20.8165886 44.8831224,20.7529293 44.9478888,20.7529293 L44.9478888,6.17495135 C44.9478888,0.0636592923 23.5749734,0 22.6682436,0 C21.7615139,0 0.388598462,0.0636592923 0.388598462,6.17495135 L0.388598462,20.68927 C0.518131283,20.68927 0.582897694,20.7529293 0.647664104,20.8165886 C1.61916026,21.134885 23.2511413,28.2647258 44.6888232,20.8165886 Z M3.30308693,5.98397347 C3.43261975,5.85665489 3.62691898,5.72933631 3.88598462,5.60201772 C4.08028386,5.47469914 4.27458309,5.41103984 4.53364873,5.28372126 C4.72794796,5.15640267 4.9870136,5.09274338 5.31084565,4.9654248 C7.12430514,4.32883188 12.4999172,2.73734957 22.6682436,2.73734957 C32.4479716,2.73734957 37.7588173,4.20151329 39.6370432,4.77444692 C41.5800355,5.41103984 42.1629332,5.98397347 42.1629332,6.11129206 C42.1629332,6.11129206 42.0981668,6.17495135 41.9686339,6.30226994 C41.9038675,6.36592923 41.7743347,6.42958852 41.7095683,6.49324781 L41.6448019,6.5569071 C41.5152691,6.6205664 41.3857363,6.68422569 41.191437,6.81154427 L41.0619042,6.87520357 C40.9323714,6.93886286 40.7380721,7.00252215 40.5437729,7.06618144 L40.3494737,7.12984074 C40.1551745,7.19350003 39.9608752,7.25715932 39.7018096,7.3844779 L39.5075103,7.4481372 C39.2484447,7.51179649 39.0541455,7.57545578 38.7950798,7.70277437 L38.4712478,7.76643366 C38.2121821,7.83009295 37.9531165,7.89375224 37.6292844,7.95741154 L37.240686,8.02107083 C36.9168539,8.08473012 36.5930219,8.14838941 36.2691898,8.2120487 C36.0748906,8.275708 35.815825,8.275708 35.5567593,8.33936729 L34.9090952,8.46668587 C34.714796,8.53034517 34.4557303,8.53034517 34.2614311,8.59400446 L34.1318983,8.59400446 C33.8728326,8.65766375 33.6785334,8.65766375 33.4194678,8.72132304 C33.1604021,8.78498233 32.9013365,8.78498233 32.5775044,8.84864163 C32.3184388,8.91230092 31.9946067,8.91230092 31.7355411,8.97596021 C31.4764755,8.97596021 31.1526434,9.0396195 30.8935778,9.0396195 C30.5697457,9.1032788 30.2459137,9.1032788 29.9220816,9.1032788 C29.663016,9.1032788 29.3391839,9.16693809 29.0801183,9.16693809 C28.6915198,9.16693809 28.3029213,9.23059738 27.9143229,9.23059738 L27.0723596,9.29425667 C26.6189947,9.29425667 26.1656298,9.35791597 25.7122649,9.35791597 L24.9998344,9.35791597 C24.2874039,9.35791597 23.510207,9.35791597 22.7330101,9.35791597 C21.9558131,9.35791597 21.2433826,9.35791597 20.5309521,9.35791597 L19.8185216,9.35791597 C19.3651567,9.35791597 18.9117918,9.35791597 18.458427,9.29425667 L17.6164636,9.23059738 C17.2278652,9.23059738 16.8392667,9.16693809 16.4506682,9.16693809 C16.1916026,9.16693809 15.8677705,9.1032788 15.6087049,9.1032788 C15.2848729,9.1032788 14.9610408,9.0396195 14.6372088,9.0396195 C14.3781431,9.0396195 14.0543111,8.97596021 13.7952454,8.97596021 C13.4714134,8.91230092 13.2123477,8.91230092 12.9532821,8.84864163 C12.6942164,8.78498233 12.3703844,8.78498233 12.1113187,8.72132304 C11.8522531,8.65766375 11.6579539,8.65766375 11.3988882,8.59400446 L11.0102898,8.72132304 C10.8159905,8.72132304 10.6216913,8.65766375 10.4273921,8.65766375 L9.77972797,8.53034517 C9.52066233,8.46668587 9.26159669,8.46668587 9.06729746,8.40302658 C8.74346541,8.33936729 8.41963335,8.275708 8.0958013,8.2120487 L7.70720284,8.14838941 C7.38337079,8.08473012 7.12430514,8.02107083 6.8652395,7.95741154 L6.54140745,7.83009295 C6.28234181,7.76643366 6.02327617,7.70277437 5.82897694,7.57545578 L5.5699113,7.51179649 C5.37561206,7.4481372 5.18131283,7.3844779 4.9870136,7.32081861 L4.79271437,7.25715932 C4.59841514,7.19350003 4.46888232,7.12984074 4.27458309,7.00252215 L4.20981668,6.93886286 C4.08028386,6.87520357 3.88598462,6.81154427 3.7564518,6.68422569 C3.7564518,6.68422569 3.69168539,6.6205664 3.69168539,6.6205664 C3.56215257,6.5569071 3.49738616,6.49324781 3.36785334,6.36592923 C3.30308693,6.30226994 3.23832052,6.23861064 3.23832052,6.23861064 C3.1087877,6.17495135 3.17355411,6.11129206 3.30308693,5.98397347 Z" id="Shape" fill="#000000" fill-rule="nonzero"></path>
                                        <path d="M3.30308693,5.98397347 C3.43261975,5.85665489 3.62691898,5.72933631 3.88598462,5.60201772 C4.08028386,5.47469914 4.27458309,5.41103984 4.53364873,5.28372126 C4.72794796,5.15640267 4.9870136,5.09274338 5.31084565,4.9654248 C7.12430514,4.32883188 12.4999172,2.73734957 22.6682436,2.73734957 C32.4479716,2.73734957 37.7588173,4.20151329 39.6370432,4.77444692 C41.5800355,5.41103984 42.1629332,5.98397347 42.1629332,6.11129206 C42.1629332,6.11129206 42.0981668,6.17495135 41.9686339,6.30226994 C41.9038675,6.36592923 41.7743347,6.42958852 41.7095683,6.49324781 L41.6448019,6.5569071 C41.5152691,6.6205664 41.3857363,6.68422569 41.191437,6.81154427 L41.0619042,6.87520357 C40.9323714,6.93886286 40.7380721,7.00252215 40.5437729,7.06618144 L40.3494737,7.12984074 C40.1551745,7.19350003 39.9608752,7.25715932 39.7018096,7.3844779 L39.5075103,7.4481372 C39.2484447,7.51179649 39.0541455,7.57545578 38.7950798,7.70277437 L38.4712478,7.76643366 C38.2121821,7.83009295 37.9531165,7.89375224 37.6292844,7.95741154 L37.240686,8.02107083 C36.9168539,8.08473012 36.5930219,8.14838941 36.2691898,8.2120487 C36.0748906,8.275708 35.815825,8.275708 35.5567593,8.33936729 L34.9090952,8.46668587 C34.714796,8.53034517 34.4557303,8.53034517 34.2614311,8.59400446 L34.1318983,8.59400446 C33.8728326,8.65766375 33.6785334,8.65766375 33.4194678,8.72132304 C33.1604021,8.78498233 32.9013365,8.78498233 32.5775044,8.84864163 C32.3184388,8.91230092 31.9946067,8.91230092 31.7355411,8.97596021 C31.4764755,8.97596021 31.1526434,9.0396195 30.8935778,9.0396195 C30.5697457,9.1032788 30.2459137,9.1032788 29.9220816,9.1032788 C29.663016,9.1032788 29.3391839,9.16693809 29.0801183,9.16693809 C28.6915198,9.16693809 28.3029213,9.23059738 27.9143229,9.23059738 L27.0723596,9.29425667 C26.6189947,9.29425667 26.1656298,9.35791597 25.7122649,9.35791597 L24.9998344,9.35791597 C24.2874039,9.35791597 23.510207,9.35791597 22.7330101,9.35791597 C21.9558131,9.35791597 21.2433826,9.35791597 20.5309521,9.35791597 L19.8185216,9.35791597 C19.3651567,9.35791597 18.9117918,9.35791597 18.458427,9.29425667 L17.6164636,9.23059738 C17.2278652,9.23059738 16.8392667,9.16693809 16.4506682,9.16693809 C16.1916026,9.16693809 15.8677705,9.1032788 15.6087049,9.1032788 C15.2848729,9.1032788 14.9610408,9.0396195 14.6372088,9.0396195 C14.3781431,9.0396195 14.0543111,8.97596021 13.7952454,8.97596021 C13.4714134,8.91230092 13.2123477,8.91230092 12.9532821,8.84864163 C12.6942164,8.78498233 12.3703844,8.78498233 12.1113187,8.72132304 C11.8522531,8.65766375 11.6579539,8.65766375 11.3988882,8.59400446 L11.0102898,8.72132304 C10.8159905,8.72132304 10.6216913,8.65766375 10.4273921,8.65766375 L9.77972797,8.53034517 C9.52066233,8.46668587 9.26159669,8.46668587 9.06729746,8.40302658 C8.74346541,8.33936729 8.41963335,8.275708 8.0958013,8.2120487 L7.70720284,8.14838941 C7.38337079,8.08473012 7.12430514,8.02107083 6.8652395,7.95741154 L6.54140745,7.83009295 C6.28234181,7.76643366 6.02327617,7.70277437 5.82897694,7.57545578 L5.5699113,7.51179649 C5.37561206,7.4481372 5.18131283,7.3844779 4.9870136,7.32081861 L4.79271437,7.25715932 C4.59841514,7.19350003 4.46888232,7.12984074 4.27458309,7.00252215 L4.20981668,6.93886286 C4.08028386,6.87520357 3.88598462,6.81154427 3.7564518,6.68422569 C3.7564518,6.68422569 3.69168539,6.6205664 3.69168539,6.6205664 C3.56215257,6.5569071 3.49738616,6.49324781 3.36785334,6.36592923 C3.30308693,6.30226994 3.23832052,6.23861064 3.23832052,6.23861064 C3.1087877,6.17495135 3.17355411,6.11129206 3.30308693,5.98397347 Z" id="Path" fill="#FFFFFF" fill-rule="nonzero"></path>
                                        <path d="M44.818356,36.8587302 C44.8831224,36.8587302 44.9478888,36.8587302 45.0126552,36.7950709 L45.0126552,23.6175974 C37.6292844,26.0366505 30.1811473,26.9278806 23.510207,26.9278806 C12.4999172,26.9278806 3.56215257,24.6361461 0.453364873,23.6175974 L0.453364873,36.9860488 C4.46888232,38.322894 25.0646008,44.3705267 44.818356,36.8587302 Z" id="Path" fill="#000000"></path>
                                        <path d="M0.388598462,39.7870577 L0.388598462,51.1184117 C0.388598462,57.2297038 21.7615139,57.2933631 22.6682436,57.2933631 C23.5749734,57.2933631 44.9478888,57.2297038 44.9478888,51.1184117 L44.9478888,39.7233984 C37.4997516,42.3970887 30.1163808,43.351978 23.4454406,43.351978 C12.8885157,43.351978 4.20981668,41.0602435 0.388598462,39.7870577 Z" id="Path" fill="#000000"></path>
                                    </g>
                                    <g id="Silos" transform="translate(42.063158, 7.789474)">
                                        <rect id="Rectangle" fill="#FFFFFF" fill-rule="nonzero" x="0.778947368" y="6.23157895" width="43.6210526" height="42.0631579"></rect>
                                        <path d="M44.6888232,20.8165886 C44.7535896,20.8165886 44.8831224,20.7529293 44.9478888,20.7529293 L44.9478888,6.17495135 C44.9478888,0.0636592923 23.5749734,0 22.6682436,0 C21.7615139,0 0.388598462,0.0636592923 0.388598462,6.17495135 L0.388598462,20.68927 C0.518131283,20.68927 0.582897694,20.7529293 0.647664104,20.8165886 C1.61916026,21.134885 23.2511413,28.2647258 44.6888232,20.8165886 Z M3.30308693,5.98397347 C3.43261975,5.85665489 3.62691898,5.72933631 3.88598462,5.60201772 C4.08028386,5.47469914 4.27458309,5.41103984 4.53364873,5.28372126 C4.72794796,5.15640267 4.9870136,5.09274338 5.31084565,4.9654248 C7.12430514,4.32883188 12.4999172,2.73734957 22.6682436,2.73734957 C32.4479716,2.73734957 37.7588173,4.20151329 39.6370432,4.77444692 C41.5800355,5.41103984 42.1629332,5.98397347 42.1629332,6.11129206 C42.1629332,6.11129206 42.0981668,6.17495135 41.9686339,6.30226994 C41.9038675,6.36592923 41.7743347,6.42958852 41.7095683,6.49324781 L41.6448019,6.5569071 C41.5152691,6.6205664 41.3857363,6.68422569 41.191437,6.81154427 L41.0619042,6.87520357 C40.9323714,6.93886286 40.7380721,7.00252215 40.5437729,7.06618144 L40.3494737,7.12984074 C40.1551745,7.19350003 39.9608752,7.25715932 39.7018096,7.3844779 L39.5075103,7.4481372 C39.2484447,7.51179649 39.0541455,7.57545578 38.7950798,7.70277437 L38.4712478,7.76643366 C38.2121821,7.83009295 37.9531165,7.89375224 37.6292844,7.95741154 L37.240686,8.02107083 C36.9168539,8.08473012 36.5930219,8.14838941 36.2691898,8.2120487 C36.0748906,8.275708 35.815825,8.275708 35.5567593,8.33936729 L34.9090952,8.46668587 C34.714796,8.53034517 34.4557303,8.53034517 34.2614311,8.59400446 L34.1318983,8.59400446 C33.8728326,8.65766375 33.6785334,8.65766375 33.4194678,8.72132304 C33.1604021,8.78498233 32.9013365,8.78498233 32.5775044,8.84864163 C32.3184388,8.91230092 31.9946067,8.91230092 31.7355411,8.97596021 C31.4764755,8.97596021 31.1526434,9.0396195 30.8935778,9.0396195 C30.5697457,9.1032788 30.2459137,9.1032788 29.9220816,9.1032788 C29.663016,9.1032788 29.3391839,9.16693809 29.0801183,9.16693809 C28.6915198,9.16693809 28.3029213,9.23059738 27.9143229,9.23059738 L27.0723596,9.29425667 C26.6189947,9.29425667 26.1656298,9.35791597 25.7122649,9.35791597 L24.9998344,9.35791597 C24.2874039,9.35791597 23.510207,9.35791597 22.7330101,9.35791597 C21.9558131,9.35791597 21.2433826,9.35791597 20.5309521,9.35791597 L19.8185216,9.35791597 C19.3651567,9.35791597 18.9117918,9.35791597 18.458427,9.29425667 L17.6164636,9.23059738 C17.2278652,9.23059738 16.8392667,9.16693809 16.4506682,9.16693809 C16.1916026,9.16693809 15.8677705,9.1032788 15.6087049,9.1032788 C15.2848729,9.1032788 14.9610408,9.0396195 14.6372088,9.0396195 C14.3781431,9.0396195 14.0543111,8.97596021 13.7952454,8.97596021 C13.4714134,8.91230092 13.2123477,8.91230092 12.9532821,8.84864163 C12.6942164,8.78498233 12.3703844,8.78498233 12.1113187,8.72132304 C11.8522531,8.65766375 11.6579539,8.65766375 11.3988882,8.59400446 L11.0102898,8.72132304 C10.8159905,8.72132304 10.6216913,8.65766375 10.4273921,8.65766375 L9.77972797,8.53034517 C9.52066233,8.46668587 9.26159669,8.46668587 9.06729746,8.40302658 C8.74346541,8.33936729 8.41963335,8.275708 8.0958013,8.2120487 L7.70720284,8.14838941 C7.38337079,8.08473012 7.12430514,8.02107083 6.8652395,7.95741154 L6.54140745,7.83009295 C6.28234181,7.76643366 6.02327617,7.70277437 5.82897694,7.57545578 L5.5699113,7.51179649 C5.37561206,7.4481372 5.18131283,7.3844779 4.9870136,7.32081861 L4.79271437,7.25715932 C4.59841514,7.19350003 4.46888232,7.12984074 4.27458309,7.00252215 L4.20981668,6.93886286 C4.08028386,6.87520357 3.88598462,6.81154427 3.7564518,6.68422569 C3.7564518,6.68422569 3.69168539,6.6205664 3.69168539,6.6205664 C3.56215257,6.5569071 3.49738616,6.49324781 3.36785334,6.36592923 C3.30308693,6.30226994 3.23832052,6.23861064 3.23832052,6.23861064 C3.1087877,6.17495135 3.17355411,6.11129206 3.30308693,5.98397347 Z" id="Shape" fill="#000000" fill-rule="nonzero"></path>
                                        <path d="M3.30308693,5.98397347 C3.43261975,5.85665489 3.62691898,5.72933631 3.88598462,5.60201772 C4.08028386,5.47469914 4.27458309,5.41103984 4.53364873,5.28372126 C4.72794796,5.15640267 4.9870136,5.09274338 5.31084565,4.9654248 C7.12430514,4.32883188 12.4999172,2.73734957 22.6682436,2.73734957 C32.4479716,2.73734957 37.7588173,4.20151329 39.6370432,4.77444692 C41.5800355,5.41103984 42.1629332,5.98397347 42.1629332,6.11129206 C42.1629332,6.11129206 42.0981668,6.17495135 41.9686339,6.30226994 C41.9038675,6.36592923 41.7743347,6.42958852 41.7095683,6.49324781 L41.6448019,6.5569071 C41.5152691,6.6205664 41.3857363,6.68422569 41.191437,6.81154427 L41.0619042,6.87520357 C40.9323714,6.93886286 40.7380721,7.00252215 40.5437729,7.06618144 L40.3494737,7.12984074 C40.1551745,7.19350003 39.9608752,7.25715932 39.7018096,7.3844779 L39.5075103,7.4481372 C39.2484447,7.51179649 39.0541455,7.57545578 38.7950798,7.70277437 L38.4712478,7.76643366 C38.2121821,7.83009295 37.9531165,7.89375224 37.6292844,7.95741154 L37.240686,8.02107083 C36.9168539,8.08473012 36.5930219,8.14838941 36.2691898,8.2120487 C36.0748906,8.275708 35.815825,8.275708 35.5567593,8.33936729 L34.9090952,8.46668587 C34.714796,8.53034517 34.4557303,8.53034517 34.2614311,8.59400446 L34.1318983,8.59400446 C33.8728326,8.65766375 33.6785334,8.65766375 33.4194678,8.72132304 C33.1604021,8.78498233 32.9013365,8.78498233 32.5775044,8.84864163 C32.3184388,8.91230092 31.9946067,8.91230092 31.7355411,8.97596021 C31.4764755,8.97596021 31.1526434,9.0396195 30.8935778,9.0396195 C30.5697457,9.1032788 30.2459137,9.1032788 29.9220816,9.1032788 C29.663016,9.1032788 29.3391839,9.16693809 29.0801183,9.16693809 C28.6915198,9.16693809 28.3029213,9.23059738 27.9143229,9.23059738 L27.0723596,9.29425667 C26.6189947,9.29425667 26.1656298,9.35791597 25.7122649,9.35791597 L24.9998344,9.35791597 C24.2874039,9.35791597 23.510207,9.35791597 22.7330101,9.35791597 C21.9558131,9.35791597 21.2433826,9.35791597 20.5309521,9.35791597 L19.8185216,9.35791597 C19.3651567,9.35791597 18.9117918,9.35791597 18.458427,9.29425667 L17.6164636,9.23059738 C17.2278652,9.23059738 16.8392667,9.16693809 16.4506682,9.16693809 C16.1916026,9.16693809 15.8677705,9.1032788 15.6087049,9.1032788 C15.2848729,9.1032788 14.9610408,9.0396195 14.6372088,9.0396195 C14.3781431,9.0396195 14.0543111,8.97596021 13.7952454,8.97596021 C13.4714134,8.91230092 13.2123477,8.91230092 12.9532821,8.84864163 C12.6942164,8.78498233 12.3703844,8.78498233 12.1113187,8.72132304 C11.8522531,8.65766375 11.6579539,8.65766375 11.3988882,8.59400446 L11.0102898,8.72132304 C10.8159905,8.72132304 10.6216913,8.65766375 10.4273921,8.65766375 L9.77972797,8.53034517 C9.52066233,8.46668587 9.26159669,8.46668587 9.06729746,8.40302658 C8.74346541,8.33936729 8.41963335,8.275708 8.0958013,8.2120487 L7.70720284,8.14838941 C7.38337079,8.08473012 7.12430514,8.02107083 6.8652395,7.95741154 L6.54140745,7.83009295 C6.28234181,7.76643366 6.02327617,7.70277437 5.82897694,7.57545578 L5.5699113,7.51179649 C5.37561206,7.4481372 5.18131283,7.3844779 4.9870136,7.32081861 L4.79271437,7.25715932 C4.59841514,7.19350003 4.46888232,7.12984074 4.27458309,7.00252215 L4.20981668,6.93886286 C4.08028386,6.87520357 3.88598462,6.81154427 3.7564518,6.68422569 C3.7564518,6.68422569 3.69168539,6.6205664 3.69168539,6.6205664 C3.56215257,6.5569071 3.49738616,6.49324781 3.36785334,6.36592923 C3.30308693,6.30226994 3.23832052,6.23861064 3.23832052,6.23861064 C3.1087877,6.17495135 3.17355411,6.11129206 3.30308693,5.98397347 Z" id="Path" fill="#FFFFFF" fill-rule="nonzero"></path>
                                        <path d="M44.818356,36.8587302 C44.8831224,36.8587302 44.9478888,36.8587302 45.0126552,36.7950709 L45.0126552,23.6175974 C37.6292844,26.0366505 30.1811473,26.9278806 23.510207,26.9278806 C12.4999172,26.9278806 3.56215257,24.6361461 0.453364873,23.6175974 L0.453364873,36.9860488 C4.46888232,38.322894 25.0646008,44.3705267 44.818356,36.8587302 Z" id="Path" fill="#000000"></path>
                                        <path d="M0.388598462,39.7870577 L0.388598462,51.1184117 C0.388598462,57.2297038 21.7615139,57.2933631 22.6682436,57.2933631 C23.5749734,57.2933631 44.9478888,57.2297038 44.9478888,51.1184117 L44.9478888,39.7233984 C37.4997516,42.3970887 30.1163808,43.351978 23.4454406,43.351978 C12.8885157,43.351978 4.20981668,41.0602435 0.388598462,39.7870577 Z" id="Path" fill="#000000"></path>
                                    </g>
                                    <g id="Silos" transform="translate(0.000000, 16.357895)">
                                        <rect id="Rectangle" fill="#FFFFFF" fill-rule="nonzero" x="0.778947368" y="6.23157895" width="43.6210526" height="42.0631579"></rect>
                                        <path d="M44.6888232,20.8165886 C44.7535896,20.8165886 44.8831224,20.7529293 44.9478888,20.7529293 L44.9478888,6.17495135 C44.9478888,0.0636592923 23.5749734,0 22.6682436,0 C21.7615139,0 0.388598462,0.0636592923 0.388598462,6.17495135 L0.388598462,20.68927 C0.518131283,20.68927 0.582897694,20.7529293 0.647664104,20.8165886 C1.61916026,21.134885 23.2511413,28.2647258 44.6888232,20.8165886 Z M3.30308693,5.98397347 C3.43261975,5.85665489 3.62691898,5.72933631 3.88598462,5.60201772 C4.08028386,5.47469914 4.27458309,5.41103984 4.53364873,5.28372126 C4.72794796,5.15640267 4.9870136,5.09274338 5.31084565,4.9654248 C7.12430514,4.32883188 12.4999172,2.73734957 22.6682436,2.73734957 C32.4479716,2.73734957 37.7588173,4.20151329 39.6370432,4.77444692 C41.5800355,5.41103984 42.1629332,5.98397347 42.1629332,6.11129206 C42.1629332,6.11129206 42.0981668,6.17495135 41.9686339,6.30226994 C41.9038675,6.36592923 41.7743347,6.42958852 41.7095683,6.49324781 L41.6448019,6.5569071 C41.5152691,6.6205664 41.3857363,6.68422569 41.191437,6.81154427 L41.0619042,6.87520357 C40.9323714,6.93886286 40.7380721,7.00252215 40.5437729,7.06618144 L40.3494737,7.12984074 C40.1551745,7.19350003 39.9608752,7.25715932 39.7018096,7.3844779 L39.5075103,7.4481372 C39.2484447,7.51179649 39.0541455,7.57545578 38.7950798,7.70277437 L38.4712478,7.76643366 C38.2121821,7.83009295 37.9531165,7.89375224 37.6292844,7.95741154 L37.240686,8.02107083 C36.9168539,8.08473012 36.5930219,8.14838941 36.2691898,8.2120487 C36.0748906,8.275708 35.815825,8.275708 35.5567593,8.33936729 L34.9090952,8.46668587 C34.714796,8.53034517 34.4557303,8.53034517 34.2614311,8.59400446 L34.1318983,8.59400446 C33.8728326,8.65766375 33.6785334,8.65766375 33.4194678,8.72132304 C33.1604021,8.78498233 32.9013365,8.78498233 32.5775044,8.84864163 C32.3184388,8.91230092 31.9946067,8.91230092 31.7355411,8.97596021 C31.4764755,8.97596021 31.1526434,9.0396195 30.8935778,9.0396195 C30.5697457,9.1032788 30.2459137,9.1032788 29.9220816,9.1032788 C29.663016,9.1032788 29.3391839,9.16693809 29.0801183,9.16693809 C28.6915198,9.16693809 28.3029213,9.23059738 27.9143229,9.23059738 L27.0723596,9.29425667 C26.6189947,9.29425667 26.1656298,9.35791597 25.7122649,9.35791597 L24.9998344,9.35791597 C24.2874039,9.35791597 23.510207,9.35791597 22.7330101,9.35791597 C21.9558131,9.35791597 21.2433826,9.35791597 20.5309521,9.35791597 L19.8185216,9.35791597 C19.3651567,9.35791597 18.9117918,9.35791597 18.458427,9.29425667 L17.6164636,9.23059738 C17.2278652,9.23059738 16.8392667,9.16693809 16.4506682,9.16693809 C16.1916026,9.16693809 15.8677705,9.1032788 15.6087049,9.1032788 C15.2848729,9.1032788 14.9610408,9.0396195 14.6372088,9.0396195 C14.3781431,9.0396195 14.0543111,8.97596021 13.7952454,8.97596021 C13.4714134,8.91230092 13.2123477,8.91230092 12.9532821,8.84864163 C12.6942164,8.78498233 12.3703844,8.78498233 12.1113187,8.72132304 C11.8522531,8.65766375 11.6579539,8.65766375 11.3988882,8.59400446 L11.0102898,8.72132304 C10.8159905,8.72132304 10.6216913,8.65766375 10.4273921,8.65766375 L9.77972797,8.53034517 C9.52066233,8.46668587 9.26159669,8.46668587 9.06729746,8.40302658 C8.74346541,8.33936729 8.41963335,8.275708 8.0958013,8.2120487 L7.70720284,8.14838941 C7.38337079,8.08473012 7.12430514,8.02107083 6.8652395,7.95741154 L6.54140745,7.83009295 C6.28234181,7.76643366 6.02327617,7.70277437 5.82897694,7.57545578 L5.5699113,7.51179649 C5.37561206,7.4481372 5.18131283,7.3844779 4.9870136,7.32081861 L4.79271437,7.25715932 C4.59841514,7.19350003 4.46888232,7.12984074 4.27458309,7.00252215 L4.20981668,6.93886286 C4.08028386,6.87520357 3.88598462,6.81154427 3.7564518,6.68422569 C3.7564518,6.68422569 3.69168539,6.6205664 3.69168539,6.6205664 C3.56215257,6.5569071 3.49738616,6.49324781 3.36785334,6.36592923 C3.30308693,6.30226994 3.23832052,6.23861064 3.23832052,6.23861064 C3.1087877,6.17495135 3.17355411,6.11129206 3.30308693,5.98397347 Z" id="Shape" fill="#000000" fill-rule="nonzero"></path>
                                        <path d="M3.30308693,5.98397347 C3.43261975,5.85665489 3.62691898,5.72933631 3.88598462,5.60201772 C4.08028386,5.47469914 4.27458309,5.41103984 4.53364873,5.28372126 C4.72794796,5.15640267 4.9870136,5.09274338 5.31084565,4.9654248 C7.12430514,4.32883188 12.4999172,2.73734957 22.6682436,2.73734957 C32.4479716,2.73734957 37.7588173,4.20151329 39.6370432,4.77444692 C41.5800355,5.41103984 42.1629332,5.98397347 42.1629332,6.11129206 C42.1629332,6.11129206 42.0981668,6.17495135 41.9686339,6.30226994 C41.9038675,6.36592923 41.7743347,6.42958852 41.7095683,6.49324781 L41.6448019,6.5569071 C41.5152691,6.6205664 41.3857363,6.68422569 41.191437,6.81154427 L41.0619042,6.87520357 C40.9323714,6.93886286 40.7380721,7.00252215 40.5437729,7.06618144 L40.3494737,7.12984074 C40.1551745,7.19350003 39.9608752,7.25715932 39.7018096,7.3844779 L39.5075103,7.4481372 C39.2484447,7.51179649 39.0541455,7.57545578 38.7950798,7.70277437 L38.4712478,7.76643366 C38.2121821,7.83009295 37.9531165,7.89375224 37.6292844,7.95741154 L37.240686,8.02107083 C36.9168539,8.08473012 36.5930219,8.14838941 36.2691898,8.2120487 C36.0748906,8.275708 35.815825,8.275708 35.5567593,8.33936729 L34.9090952,8.46668587 C34.714796,8.53034517 34.4557303,8.53034517 34.2614311,8.59400446 L34.1318983,8.59400446 C33.8728326,8.65766375 33.6785334,8.65766375 33.4194678,8.72132304 C33.1604021,8.78498233 32.9013365,8.78498233 32.5775044,8.84864163 C32.3184388,8.91230092 31.9946067,8.91230092 31.7355411,8.97596021 C31.4764755,8.97596021 31.1526434,9.0396195 30.8935778,9.0396195 C30.5697457,9.1032788 30.2459137,9.1032788 29.9220816,9.1032788 C29.663016,9.1032788 29.3391839,9.16693809 29.0801183,9.16693809 C28.6915198,9.16693809 28.3029213,9.23059738 27.9143229,9.23059738 L27.0723596,9.29425667 C26.6189947,9.29425667 26.1656298,9.35791597 25.7122649,9.35791597 L24.9998344,9.35791597 C24.2874039,9.35791597 23.510207,9.35791597 22.7330101,9.35791597 C21.9558131,9.35791597 21.2433826,9.35791597 20.5309521,9.35791597 L19.8185216,9.35791597 C19.3651567,9.35791597 18.9117918,9.35791597 18.458427,9.29425667 L17.6164636,9.23059738 C17.2278652,9.23059738 16.8392667,9.16693809 16.4506682,9.16693809 C16.1916026,9.16693809 15.8677705,9.1032788 15.6087049,9.1032788 C15.2848729,9.1032788 14.9610408,9.0396195 14.6372088,9.0396195 C14.3781431,9.0396195 14.0543111,8.97596021 13.7952454,8.97596021 C13.4714134,8.91230092 13.2123477,8.91230092 12.9532821,8.84864163 C12.6942164,8.78498233 12.3703844,8.78498233 12.1113187,8.72132304 C11.8522531,8.65766375 11.6579539,8.65766375 11.3988882,8.59400446 L11.0102898,8.72132304 C10.8159905,8.72132304 10.6216913,8.65766375 10.4273921,8.65766375 L9.77972797,8.53034517 C9.52066233,8.46668587 9.26159669,8.46668587 9.06729746,8.40302658 C8.74346541,8.33936729 8.41963335,8.275708 8.0958013,8.2120487 L7.70720284,8.14838941 C7.38337079,8.08473012 7.12430514,8.02107083 6.8652395,7.95741154 L6.54140745,7.83009295 C6.28234181,7.76643366 6.02327617,7.70277437 5.82897694,7.57545578 L5.5699113,7.51179649 C5.37561206,7.4481372 5.18131283,7.3844779 4.9870136,7.32081861 L4.79271437,7.25715932 C4.59841514,7.19350003 4.46888232,7.12984074 4.27458309,7.00252215 L4.20981668,6.93886286 C4.08028386,6.87520357 3.88598462,6.81154427 3.7564518,6.68422569 C3.7564518,6.68422569 3.69168539,6.6205664 3.69168539,6.6205664 C3.56215257,6.5569071 3.49738616,6.49324781 3.36785334,6.36592923 C3.30308693,6.30226994 3.23832052,6.23861064 3.23832052,6.23861064 C3.1087877,6.17495135 3.17355411,6.11129206 3.30308693,5.98397347 Z" id="Path" fill="#FFFFFF" fill-rule="nonzero"></path>
                                        <path d="M44.818356,36.8587302 C44.8831224,36.8587302 44.9478888,36.8587302 45.0126552,36.7950709 L45.0126552,23.6175974 C37.6292844,26.0366505 30.1811473,26.9278806 23.510207,26.9278806 C12.4999172,26.9278806 3.56215257,24.6361461 0.453364873,23.6175974 L0.453364873,36.9860488 C4.46888232,38.322894 25.0646008,44.3705267 44.818356,36.8587302 Z" id="Path" fill="#000000"></path>
                                        <path d="M0.388598462,39.7870577 L0.388598462,51.1184117 C0.388598462,57.2297038 21.7615139,57.2933631 22.6682436,57.2933631 C23.5749734,57.2933631 44.9478888,57.2297038 44.9478888,51.1184117 L44.9478888,39.7233984 C37.4997516,42.3970887 30.1163808,43.351978 23.4454406,43.351978 C12.8885157,43.351978 4.20981668,41.0602435 0.388598462,39.7870577 Z" id="Path" fill="#000000"></path>
                                    </g>
                                </g>
                                <text font-family="DINPro-Bold, DINPro" font-size="28" font-weight="bold" letter-spacing="1.12" fill="#000000">
                                    <tspan x="18" y="29">Pharma</tspan>
                                </text>
                                <text id="Historical-Data" font-family="DINPro-Regular, DINPro" font-size="20" font-weight="normal" letter-spacing="0.8" fill="#000000">
                                    <tspan x="0" y="149">Historical Data</tspan>
                                </text>
                            </g>
                        </g>
                        <g id="Center" transform="translate(455.000000, 0.000000)">
                            <g id="Arrow" transform="translate(47.000000, 173.000000)" fill="#1890FF">
                                <path d="M36.8559336,22.1765792 L24.234205,36.3531583 L21.033042,33.6550352 L27.02379,27.0697855 C28.3652364,25.6673642 29.4780106,24.6612945 30.3621457,24.0515461 L-7,24.0515461 L-7,20.3016122 L30.4078766,20.3016122 C29.7371534,19.8747884 29.1883881,19.4632144 28.7615642,19.0668779 C28.3347403,18.6705415 27.755488,18.0760457 27.02379,17.2833728 L21.033042,10.6981231 L24.234205,8 L36.8559336,22.1765792 Z" id="-&gt;" transform="translate(14.927967, 22.176579) rotate(90.000000) translate(-14.927967, -22.176579) "></path>
                            </g>
                            <g id="CROs">
                                <g id="CRO" transform="translate(11.000000, 42.000000)" fill-rule="nonzero">
                                    <rect id="Rectangle" fill="#FFFFFF" x="0" y="0" width="101" height="74" rx="7"></rect>
                                    <path d="M31.3939394,55.9393939 L0,55.9393939 L0,39.1212121 L31.3939394,39.1212121 L31.3939394,55.9393939 Z M33.6363636,55.9393939 L67.2727273,55.9393939 L67.2727273,39.1212121 L33.6363636,39.1212121 L33.6363636,55.9393939 Z M33.6363636,75 L67.2727273,75 L67.2727273,58.1818182 L33.6363636,58.1818182 L33.6363636,75 Z M31.3939394,20.0606061 L0,20.0606061 L0,36.8787879 L31.3939394,36.8787879 L31.3939394,20.0606061 Z M33.6363636,36.8787879 L67.2727273,36.8787879 L67.2727273,20.0606061 L33.6363636,20.0606061 L33.6363636,36.8787879 Z M93.0606061,1 L7.84848485,1 C3.51388636,1 9.9583641e-16,4.51388636 0,8.84848485 L0,17.8181818 L100.909091,17.8181818 L100.909091,8.84848485 C100.909091,4.51388636 97.3952046,1 93.0606061,1 Z M69.5151515,36.8787879 L100.909091,36.8787879 L100.909091,20.0606061 L69.5151515,20.0606061 L69.5151515,36.8787879 Z M31.3939394,58.1818182 L0,58.1818182 L0,67.1515152 C0,71.4861136 3.51388636,75 7.84848485,75 L31.3939394,75 L31.3939394,58.1818182 Z M69.5151515,55.9393939 L100.909091,55.9393939 L100.909091,39.1212121 L69.5151515,39.1212121 L69.5151515,55.9393939 Z M69.5151515,75 L93.0606061,75 C97.3952046,75 100.909091,71.4861136 100.909091,67.1515152 L100.909091,58.1818182 L69.5151515,58.1818182 L69.5151515,75 Z" id="Shape" fill="#000000"></path>
                                </g>
                                <text id="Clinical-Data" font-family="DINPro-Regular, DINPro" font-size="20" font-weight="normal" letter-spacing="0.8" fill="#000000">
                                    <tspan x="0.79" y="149">Clinical Data</tspan>
                                </text>
                                <text font-family="DINPro-Bold, DINPro" font-size="28" font-weight="bold" letter-spacing="1.12" fill="#000000">
                                    <tspan x="31" y="29">CROs</tspan>
                                </text>
                            </g>
                        </g>
                    </g>
                    <g id="Opportunity-Arrow" transform="translate(517.500000, 500.500000) rotate(90.000000) translate(-517.500000, -500.500000) translate(369.000000, 486.000000)">
                        <path d="M0,19 L251,19" id="Line" stroke="#1890FF" stroke-width="3.71" stroke-linecap="square" fill-rule="nonzero" transform="translate(125.500000, 19.000000) scale(-1, 1) translate(-125.500000, -19.000000) "></path>
                        <path d="M0,10 L251,10" id="Line" stroke="#1890FF" stroke-width="3.71" stroke-linecap="square" fill-rule="nonzero" transform="translate(125.500000, 10.000000) scale(-1, 1) translate(-125.500000, -10.000000) "></path>
                        <path d="M297,14.5 L283.609901,29 L280.213861,26.2403226 L283.076238,23.2 C284.014196,22.2333285 284.968312,21.4693576 285.938614,20.9080645 L248,20.9080645 L248,17.1193548 L288.849505,17.1193548 L291.323762,14.5 L288.849505,11.8806452 L248,11.8806452 L248,8.09193548 L285.938614,8.09193548 C285.324089,7.74892302 284.814688,7.39812007 284.410396,7.03951613 C284.006104,6.68091219 283.561389,6.25215303 283.076238,5.75322581 L280.213861,2.75967742 L283.609901,0 L297,14.5 Z" id="=&gt;" fill="#1890FF"></path>
                    </g>
                    <g id="Filter" transform="translate(517.500000, 372.500000) scale(-1, 1) translate(-517.500000, -372.500000) translate(388.000000, 225.000000)">
                        <path d="M89.0193145,161.285047 C90.7345977,164.042056 91.7637677,167.718069 91.7637677,171.394081 L91.7637677,282.593458 C91.7637677,286.728972 93.1359943,290.404984 95.8804476,292.702492 C97.2526742,294.080997 99.3110142,295 101.026297,295 C102.055467,295 103.427694,294.540498 104.456864,294.080997 L162.090382,261.915888 C165.520949,260.077882 167.579289,255.482866 167.579289,250.88785 L167.579289,171.394081 C167.579289,167.718069 168.608459,164.042056 169.980686,161.285047 L256.430963,25.7320872 C259.175416,21.1370717 259.86153,14.7040498 257.80319,9.19003115 C255.74485,3.67601246 251.62817,0 247.168433,0 L11.8315666,0 C7.37183004,0 3.25515015,3.67601246 1.19681021,9.19003115 C-0.861529736,14.7040498 -0.175416422,21.1370717 2.56903684,26.1915888 L89.0193145,161.285047 Z M7.62304005,12.6713466 C8.31095445,10.376755 10.0307404,9 12.0944836,9 L248.049122,9 C250.112866,9 251.832652,10.376755 252.520566,12.6713466 C253.20848,14.9659381 253.20848,17.7194481 252.176609,19.5551213 L165.499395,154.936025 C162.747737,159.525209 161.371908,165.032229 161.371908,170.539248 L161.371908,249.932118 C161.371908,251.308873 160.683994,252.226709 159.996079,252.685627 L102.21127,284.80991 C101.179398,285.268828 100.491484,284.80991 100.147527,284.350991 C99.8035695,283.892073 99.1156551,283.433155 99.1156551,282.0564 L99.1156551,170.998167 C99.1156551,165.491147 97.7398263,159.525209 94.9881687,154.936025 L7.96699725,19.5551213 C6.93512565,17.7194481 6.59116845,14.9659381 7.62304005,12.6713466 Z M7.62304005,12.6713466 C8.31095445,10.376755 10.0307404,9 12.0944836,9 L248.049122,9 C250.112866,9 251.832652,10.376755 252.520566,12.6713466 C253.20848,14.9659381 253.20848,17.7194481 252.176609,19.5551213 L165.499395,154.936025 C162.747737,159.525209 161.371908,165.032229 161.371908,170.539248 L161.371908,249.932118 C161.371908,251.308873 160.683994,252.226709 159.996079,252.685627 L102.21127,284.80991 C101.179398,285.268828 100.491484,284.80991 100.147527,284.350991 C99.8035695,283.892073 99.1156551,283.433155 99.1156551,282.0564 L99.1156551,170.998167 C99.1156551,165.491147 97.7398263,159.525209 94.9881687,154.936025 L7.96699725,19.5551213 C6.93512565,17.7194481 6.59116845,14.9659381 7.62304005,12.6713466 Z" id="Shape" fill="#001529" fill-rule="nonzero"></path>
                        <g id="JumboLogo" transform="translate(128.500000, 129.500000) scale(-1, 1) translate(-128.500000, -129.500000) translate(93.000000, 18.000000)">
                            <g id="Group-2" transform="translate(23.000000, 0.000000)" fill="#FFFFFF">
                                <path d="M25.9759002,207.112361 L17.2867063,217.112361 L15.0829253,215.209135 L19.2071441,210.563974 C20.1306379,209.574722 20.8967065,208.865051 21.5053729,208.434942 L-4.21590018,208.434942 L-4.21590018,205.78978 L21.5368555,205.78978 C21.0751086,205.488704 20.6973213,205.198384 20.4034824,204.918813 C20.1096434,204.639241 19.710868,204.219891 19.2071441,203.660748 L15.0829253,199.015587 L17.2867063,197.112361 L25.9759002,207.112361 Z" id="-&gt;" transform="translate(10.880000, 207.112361) rotate(90.000000) translate(-10.880000, -207.112361) "></path>
                                <path d="M10.8859627,143.521538 L10.8859627,192.500374" id="Line" stroke="#FFFFFF" stroke-width="2.72" fill-rule="nonzero" stroke-linecap="square"></path>
                                <path d="M10.8859627,0.38970416 L10.8859627,30.2774399" id="Line" stroke="#FFFFFF" stroke-width="2.72" fill-rule="nonzero" stroke-linecap="square"></path>
                            </g>
                            <g id="Group" transform="translate(0.000000, 52.000000)">
                                <g id="eicon_atom_2_inverted">
                                    <g>
                                        <path d="M29.6359063,54.938755 C29.3340148,54.938755 29.0312656,54.830637 28.7868363,54.6126571 C26.6058414,52.6586855 24.3913982,50.5250984 22.2035421,48.2729303 C17.6743112,43.8435792 13.7977492,39.3374991 10.707649,34.9020446 C10.5918668,34.8122369 10.4752268,34.6971435 10.3963234,34.5811782 C7.70588643,30.6113286 5.4862974,26.6066023 3.80187976,22.6786049 C-0.0438069472,13.6568537 -0.0103587354,7.06862987 3.9005091,3.09442073 C7.70502878,-0.900714483 14.1673948,-1.03063049 23.0972097,2.72385493 C24.8459509,3.45277965 26.691606,4.26540863 28.5827165,5.13907199 C28.6393211,5.16610149 28.6950681,5.19661867 28.7482422,5.23062353 C29.0681444,5.43988422 29.338303,5.6090366 29.5604334,5.73808069 C29.7028027,5.79737122 29.8254462,5.87410013 29.9292214,5.94472562 C29.9695308,5.97262704 30.0098402,6.0022723 30.046719,6.03540524 L30.6462138,6.55855695 C31.1856735,7.02852157 31.247424,7.85422935 30.7851526,8.40266672 C30.3211658,8.95023218 29.5106899,9.01301038 28.9712303,8.54391768 L28.4883754,8.12365248 C28.4635036,8.11057369 28.4377742,8.09836681 28.4129025,8.0844161 C28.1530356,7.93793362 27.8262723,7.73826405 27.4343279,7.48279164 C25.5998221,6.63702971 23.8124869,5.84968639 22.1160622,5.14255966 C14.2548748,1.83798471 8.74363864,1.76735923 5.73329958,4.92893938 C2.62776176,8.0844161 2.77699225,13.7004497 6.15869222,21.6357892 C7.75134169,25.3501663 9.84914492,29.14476 12.3920667,32.9175558 C12.561023,33.055319 12.7385558,33.2375502 12.8663452,33.4773281 C15.8543854,37.7506056 19.6031581,42.1023559 24.0106032,46.4122541 C26.1795911,48.6469838 28.3511519,50.7369749 30.4884069,52.6499663 C31.0210053,53.1286501 31.0716065,53.9543579 30.6024739,54.4958199 C30.3477529,54.7887848 29.9926872,54.938755 29.6359063,54.938755 Z" id="Shape" fill="#FFFFFF" fill-rule="nonzero"></path>
                                        <path d="M14.9496443,31.2582571 C14.692878,31.2582571 14.4343943,31.1805754 14.2102606,31.0208477 C13.6280281,30.6045083 13.4889106,29.7884133 13.8968169,29.1966353 L15.0140505,27.5801563 C15.0338018,27.5539714 15.0526943,27.5269137 15.074163,27.5016017 C16.9591191,25.1711486 19.0896777,22.8564064 21.4074438,20.619346 C25.7836335,16.289242 30.1623994,12.6120139 34.4132116,9.70287528 C34.4767591,9.65836101 34.5454591,9.61995653 34.6175941,9.5885347 C38.8022825,6.63575461 43.0238972,4.32363093 47.1682244,2.71413448 C56.0494163,-1.03291987 62.4951933,-0.90199554 66.2891506,3.11825425 C70.2153553,7.07566037 70.250564,13.6742467 66.3698731,22.7036614 C65.5995744,24.7347341 64.6051419,26.8635638 63.4346658,28.9758096 C63.399457,29.040399 63.3573783,29.1023698 63.3118645,29.1591037 L62.7536771,29.8573668 C62.3054096,30.4203414 61.4921734,30.5032602 60.9417147,30.0467707 C60.3886797,29.5920268 60.3062397,28.7663307 60.755366,28.2059746 L61.2422772,27.5949944 C62.3303133,25.6241468 63.251752,23.6445709 63.9859832,21.7095093 C67.420983,13.7178881 67.5704055,8.09774298 64.4522844,4.95555903 C61.4449422,1.77060647 55.9549538,1.8439241 48.1205781,5.14845421 C44.0801597,6.71867336 39.9839225,8.97231751 35.9134478,11.8631267 C35.8378778,11.9163693 35.758014,11.9600107 35.675574,11.9957967 C31.6085343,14.7993231 27.4101059,18.3351528 23.1919262,22.5072749 C20.9531651,24.669272 18.9050465,26.8923671 17.0930841,29.1276819 L16.0041892,30.7022652 C15.7551517,31.0644891 15.355833,31.2582571 14.9496443,31.2582571 Z" id="Shape" fill="#FFFFFF" fill-rule="nonzero"></path>
                                        <path d="M59.1022797,68.6734437 C55.9525972,68.6734437 52.2361271,67.7935453 47.9744368,66.0354804 C45.5925487,65.1027533 43.1709769,63.9387932 40.7968531,62.5860358 L39.8496191,61.9988595 C39.2414224,61.6203992 39.0516305,60.8219087 39.4286262,60.2113492 C39.8064845,59.6007897 40.601885,59.4128587 41.2100817,59.7904529 L42.117632,60.351648 C44.340785,61.6195332 46.6502071,62.7280667 48.9354739,63.62442 C56.7885441,66.8625503 62.3520342,66.898058 65.4948152,63.7430677 C68.4892134,60.6339776 68.328753,55.048874 65.0013563,47.1549029 C63.1629631,42.9849116 60.6421819,38.7118613 57.5183802,34.4725866 C54.6119764,30.5338285 51.0697698,26.4755565 46.9944206,22.4103563 C44.4175645,19.9663863 41.900234,17.6436621 39.5381878,15.5296541 C39.0041825,15.052465 38.9567345,14.2323235 39.4320769,13.6962436 C39.9074193,13.1601637 40.7243871,13.1125314 41.2601178,13.5914525 C43.6411432,15.7210493 46.1748647,18.0602283 48.7931299,20.5449022 C52.9840797,24.72442 56.6116926,28.8822867 59.5974639,32.926702 C62.8342781,37.3201321 65.450818,41.7585964 67.3763428,46.120849 C71.1557893,55.0861138 71.1376728,61.6203992 67.3392471,65.5643536 C65.2739664,67.6359256 62.5211215,68.6734437 59.1022797,68.6734437 Z" id="Shape" fill="#FFFFFF" fill-rule="nonzero"></path>
                                        <path d="M11.0912919,68.6734437 C7.67606153,68.6734437 4.9390391,67.6357229 2.90700729,65.5611496 C-0.96698532,61.6013111 -0.968713238,55.0423944 2.90009562,46.0667604 C3.82625977,43.8871125 4.90966449,41.6944387 6.11661535,39.5503946 C6.31878178,39.0588883 6.61079996,38.6273006 6.98748612,38.2669206 L7.49203824,37.6425513 C7.94388885,37.0815742 8.75946624,36.999946 9.31412798,37.4532433 C9.86965369,37.9056722 9.95345772,38.7280334 9.50333503,39.2846686 L8.94176161,39.9802455 C8.8976997,40.0340854 8.85190987,40.0818466 8.80180024,40.127871 C8.66702262,40.249445 8.56766732,40.3970706 8.49768663,40.5802999 C8.47435974,40.6402186 8.44671305,40.7018739 8.41474656,40.758319 C7.2371703,42.8398394 6.18400416,44.9734629 5.2811669,47.094929 C1.86939241,55.0085273 1.69400871,60.6052728 4.75501581,63.7331978 C7.84798939,66.8932532 13.4049743,66.8515707 21.2678661,63.6133606 C25.6602342,61.8878784 30.1148073,59.4103741 34.5279104,56.2468452 C34.6186261,56.1869266 34.7188454,56.1235345 34.8251123,56.070563 C38.655907,53.3360166 42.5549544,49.9936003 46.4194435,46.137968 C48.9707147,43.6595954 51.3284591,41.1751441 53.4391112,38.7436643 L54.6538377,37.0181821 C55.0676741,36.4311534 55.8754758,36.2922117 56.4595122,36.7064316 C57.0435485,37.1223883 57.1835099,37.9343289 56.7696735,38.5230944 L55.5177968,40.3032849 C55.4927419,40.3388887 55.4650953,40.3736242 55.4365846,40.4066228 C53.2645914,42.9101786 50.8420501,45.4641008 48.2328936,47.9997868 C44.2370828,51.9856769 40.1859785,55.4496672 36.1996713,58.2849463 C36.1253708,58.3396546 36.0432947,58.3839423 35.9603546,58.4204145 C31.4142018,61.6751239 26.7877008,64.2429402 22.2294526,66.0344198 C17.9571748,67.7920323 14.2369669,68.6734437 11.0912919,68.6734437 Z" id="Shape" fill="#FFFFFF" fill-rule="nonzero"></path>
                                        <polygon id="E" fill="#1890FF" points="41.5631893 24.1541078 41.5631893 27.2769734 32.2434943 27.2769734 32.2434943 32.7086876 41.1656668 32.7086876 41.1656668 35.8315533 32.2434943 35.8315533 32.2434943 41.7072768 41.7693121 41.7072768 41.7693121 44.8301425 28.268269 44.8301425 28.268269 24.1541078"></polygon>
                                    </g>
                                </g>
                            </g>
                        </g>
                    </g>
                </g>
            </g>
        </g>
    </g>
</svg>