<?xml version="1.0" encoding="UTF-8"?>
<svg width="64px" height="100px" viewBox="0 0 64 100" version="1.1" xmlns="http://www.w3.org/2000/svg" xmlns:xlink="http://www.w3.org/1999/xlink">
    <!-- Generator: Sketch 52.5 (67469) - http://www.bohemiancoding.com/sketch -->
    <title>noun_Ribbon_1980128</title>
    <desc>Created with Sketch.</desc>
    <g id="Page-1" stroke="none" stroke-width="1" fill="none" fill-rule="evenodd">
        <g id="noun_Ribbon_1980128" fill="#000000" fill-rule="nonzero">
            <path d="M32,-1.77635515e-15 C17.7964792,-0.0135249794 5.35726123,9.52092522 1.67960153,23.2400726 C-1.99805816,36.9592199 4.00419527,51.4372322 16.31,58.53 L16.31,100 L32,84.31 L47.69,100 L47.69,58.53 C59.9958047,51.4372322 65.9980582,36.9592199 62.3203985,23.2400726 C58.6427388,9.52092522 46.2035208,-0.0135249794 32,-1.77635515e-15 Z M43.76,90.53 L32,78.76 L20.24,90.53 L20.24,60.45 C27.7850134,63.5092958 36.2249866,63.5092958 43.77,60.45 L43.76,90.53 Z M47.68,53.87 C45.9698165,55.0865938 44.1199514,56.0937799 42.17,56.87 C35.6383858,59.4834231 28.3516142,59.4834231 21.82,56.87 C19.8700486,56.0937799 18.0201835,55.0865938 16.31,53.87 C6.46702158,47.016693 2.21310203,34.5664428 5.80455002,23.1229494 C9.39599802,11.6794559 20.0011665,3.89261056 31.995,3.89261056 C43.9888335,3.89261056 54.594002,11.6794559 58.18545,23.1229494 C61.776898,34.5664428 57.5229784,47.016693 47.68,53.87 Z" id="Shape"></path>
            <path d="M32,11.76 C21.1696961,11.76 12.39,20.5396961 12.39,31.37 C12.39,42.2003039 21.1696961,50.98 32,50.98 C42.8303039,50.98 51.61,42.2003039 51.61,31.37 C51.5989758,20.5442657 42.8257343,11.7710242 32,11.76 Z M32,47.05 C25.6530776,47.0499987 19.9313027,43.22617 17.5033759,37.3619911 C15.0754491,31.4978121 16.4196528,24.7484795 20.909035,20.2619585 C25.3984173,15.7754375 32.1486055,14.4355372 38.0112354,16.8672022 C43.8738652,19.2988672 47.6940452,25.0230789 47.69,31.37 C47.6844839,40.0330618 40.6630618,47.0544839 32,47.06 L32,47.05 Z" id="Shape"></path>
        </g>
    </g>
</svg>