<?xml version="1.0" encoding="UTF-8"?>
<svg width="30px" height="117px" viewBox="0 0 30 117" version="1.1" xmlns="http://www.w3.org/2000/svg" xmlns:xlink="http://www.w3.org/1999/xlink">
    <!-- Generator: Sketch 52.6 (67491) - http://www.bohemiancoding.com/sketch -->
    <title>Group 5</title>
    <desc>Created with Sketch.</desc>
    <g id="Website" stroke="none" stroke-width="1" fill="none" fill-rule="evenodd">
        <g id="Landing2-iphoneX" transform="translate(-173.000000, -614.000000)">
            <g id="LANDING" transform="translate(0.000000, 92.000000)">
                <g id="Group-5" transform="translate(173.000000, 523.000000)">
                    <path d="M36.8559336,93.1765792 L24.234205,107.353158 L21.033042,104.655035 L27.02379,98.0697855 C28.3652364,96.6673642 29.4780106,95.6612945 30.3621457,95.0515461 L-7,95.0515461 L-7,91.3016122 L30.4078766,91.3016122 C29.7371534,90.8747884 29.1883881,90.4632144 28.7615642,90.0668779 C28.3347403,89.6705415 27.755488,89.0760457 27.02379,88.2833728 L21.033042,81.6981231 L24.234205,79 L36.8559336,93.1765792 Z" id="-&gt;" fill="#97DBFA" transform="translate(14.927967, 93.176579) scale(-1, 1) rotate(90.000000) translate(-14.927967, -93.176579) "></path>
                    <path d="M-35.0510223,51.5 L65.2944317,51.5" id="Line" stroke="#97DBFA" stroke-width="4" stroke-linecap="round" fill-rule="nonzero" transform="translate(15.000000, 51.500000) rotate(-90.000000) translate(-15.000000, -51.500000) "></path>
                </g>
            </g>
        </g>
    </g>
</svg>